<mxfile host="app.diagrams.net" modified="2023-08-13T21:12:08.203Z" agent="Mozilla/5.0 (X11; Ubuntu; Linux x86_64; rv:109.0) Gecko/20100101 Firefox/116.0" version="21.6.8" etag="dvuvIk7Cyy-w7V38Q1fU" type="github">
  <diagram name="Strona-1" id="V3OSpy2uFxWnhoLd450J">
    <mxGraphModel>
      <root>
        <mxCell id="0" />
        <mxCell id="1" parent="0" />
      </root>
    </mxGraphModel>
  </diagram>
</mxfile>
